<svg width="13" height="18" viewBox="0 0 11 14" fill="none" xmlns="http://www.w3.org/2000/svg">
<path d="M5.90625 9.37891V6.5625C5.90625 6.20703 5.60547 5.90625 5.25 5.90625C4.86719 5.90625 4.59375 6.20703 4.59375 6.5625V9.37891L3.5 8.28516C3.39062 8.17578 3.22656 8.09375 3.0625 8.09375C2.87109 8.09375 2.70703 8.17578 2.59766 8.28516C2.32422 8.55859 2.32422 8.96875 2.59766 9.21484L4.78516 11.4023C5.03125 11.6758 5.44141 11.6758 5.6875 11.4023L7.875 9.21484C8.14844 8.96875 8.14844 8.55859 7.875 8.28516C7.62891 8.03906 7.21875 8.03906 6.97266 8.28516L5.90625 9.37891ZM9.98047 2.57031L7.92969 0.519531C7.60156 0.191406 7.16406 0 6.69922 0H1.75C0.765625 0 0 0.792969 0 1.75V12.25C0 13.2344 0.765625 14 1.75 14H8.75C9.70703 14 10.5 13.2344 10.5 12.25V3.80078C10.5 3.33594 10.3086 2.89844 9.98047 2.57031ZM9.1875 12.25C9.1875 12.4961 8.96875 12.6875 8.75 12.6875H1.75C1.50391 12.6875 1.3125 12.4961 1.3125 12.25V1.77734C1.3125 1.53125 1.50391 1.33984 1.75 1.33984H6.125V3.5C6.125 3.99219 6.50781 4.375 7 4.375H9.16016V12.25H9.1875Z" fill="currentColor"/>
</svg>
