<svg width="112" height="21" viewBox="0 0 112 21" fill="none" xmlns="http://www.w3.org/2000/svg">
<path d="M2.11515 2.71212H0.248482V0.772726H6.55151V2.71212H4.68485V15.5606H10.7939V12.5303H12.9273V17.5H2.11515V2.71212ZM19.1494 17.7424C17.808 17.7424 16.7898 17.3384 16.0949 16.5303C15.3999 15.7222 15.0525 14.5424 15.0525 12.9909V6.42121H13.4282V4.55454H17.5494V12.5061C17.5494 13.6374 17.7676 14.4616 18.204 14.9788C18.6403 15.4798 19.3353 15.7303 20.2888 15.7303C21.2424 15.7303 21.9373 15.4798 22.3737 14.9788C22.81 14.4616 23.0282 13.6374 23.0282 12.5061V4.55454H25.5009V15.6333H27.1252V17.5H25.0403C24.507 17.5 24.0949 17.3626 23.804 17.0879C23.5292 16.797 23.3919 16.3848 23.3919 15.8515V15.2212H22.7373C22.4302 16.0778 21.9858 16.7162 21.404 17.1364C20.8383 17.5404 20.0868 17.7424 19.1494 17.7424ZM36.6718 9.37879C36.6718 8.34444 36.4617 7.57677 36.0415 7.07576C35.6374 6.57475 35.0152 6.32424 34.1748 6.32424C33.3344 6.32424 32.7122 6.57475 32.3081 7.07576C31.9041 7.57677 31.7021 8.34444 31.7021 9.37879V17.5H29.2051V6.42121H27.5809V4.55454H31.3142V6.83333H31.9687C32.2435 5.97677 32.6556 5.34646 33.2051 4.94242C33.7546 4.52222 34.4576 4.31212 35.3142 4.31212C36.2031 4.31212 36.9223 4.52222 37.4718 4.94242C38.0374 5.34646 38.4576 5.97677 38.7324 6.83333H39.3627C39.6374 5.96061 40.0496 5.32222 40.599 4.91818C41.1485 4.51414 41.8758 4.31212 42.7809 4.31212C44.0253 4.31212 44.9708 4.71616 45.6172 5.52424C46.2799 6.31616 46.6112 7.49596 46.6112 9.06364V15.6333H48.2354V17.5H44.1384V9.37879C44.1384 7.34242 43.3061 6.32424 41.6415 6.32424C39.9768 6.32424 39.1445 7.34242 39.1445 9.37879V17.5H36.6718V9.37879ZM50.464 6.42121H48.6216V4.55454H52.9367V17.5H50.464V6.42121ZM50.2216 0.772726H53.0822V3.07576H50.2216V0.772726ZM55.786 18.8333H63.2042C63.689 18.8333 64.0284 18.7606 64.2223 18.6152C64.4324 18.4697 64.5375 18.2192 64.5375 17.8636C64.5375 17.5081 64.4324 17.2576 64.2223 17.1121C64.0284 16.9505 63.689 16.8697 63.2042 16.8697H58.4526C56.6749 16.8697 55.786 16.2556 55.786 15.0273C55.786 14.4778 55.9638 14.0495 56.3193 13.7424C56.691 13.4354 57.2163 13.2576 57.8951 13.2091V12.6515C56.4244 12.0535 55.689 10.801 55.689 8.89394C55.689 7.43939 56.1496 6.31616 57.0708 5.52424C58.0082 4.71616 59.3092 4.31212 60.9739 4.31212C61.6526 4.31212 62.3314 4.39293 63.0102 4.55454C63.091 3.92424 63.3011 3.45556 63.6405 3.14848C63.9961 2.84141 64.4971 2.68788 65.1436 2.68788H66.9133V4.55454H64.392C64.085 4.55454 63.8587 4.63535 63.7133 4.79697C64.5375 5.15252 65.1678 5.67778 65.6042 6.37273C66.0405 7.06768 66.2587 7.90808 66.2587 8.89394C66.2587 10.3162 65.7981 11.4152 64.8769 12.1909C63.9718 12.9505 62.6951 13.3303 61.0466 13.3303H59.2042C58.8001 13.3303 58.5092 13.3949 58.3314 13.5242C58.1537 13.6374 58.0648 13.8313 58.0648 14.1061C58.0648 14.3808 58.1537 14.5747 58.3314 14.6879C58.5092 14.801 58.8001 14.8576 59.2042 14.8576H63.7133C64.7961 14.8576 65.6122 15.1 66.1617 15.5848C66.7274 16.0697 67.0102 16.7727 67.0102 17.6939C67.0102 18.6798 66.6951 19.4232 66.0648 19.9242C65.4345 20.4414 64.5213 20.7 63.3254 20.7H55.786V18.8333ZM58.1375 9.11212C58.1375 9.93636 58.3718 10.5424 58.8405 10.9303C59.3092 11.3182 60.0203 11.5121 60.9739 11.5121C61.9274 11.5121 62.6385 11.3182 63.1072 10.9303C63.5759 10.5424 63.8102 9.93636 63.8102 9.11212V8.65152C63.8102 7.82727 63.5759 7.22121 63.1072 6.83333C62.6385 6.42929 61.9274 6.22727 60.9739 6.22727C60.0203 6.22727 59.3092 6.42929 58.8405 6.83333C58.3718 7.22121 58.1375 7.82727 58.1375 8.65152V9.11212ZM72.4432 17.7424C71.1503 17.7424 70.1402 17.4273 69.4129 16.797C68.7018 16.1505 68.3462 15.2535 68.3462 14.1061C68.3462 12.9586 68.726 12.0616 69.4856 11.4152C70.2614 10.7525 71.4008 10.3404 72.9038 10.1788L76.4432 9.83939V9.20909C76.4432 8.20707 76.2331 7.4798 75.8129 7.02727C75.3927 6.55859 74.7301 6.32424 73.825 6.32424C72.9199 6.32424 72.2492 6.52626 71.8129 6.9303C71.3765 7.33434 71.1583 7.84343 71.1583 8.45758V8.57879H68.6371C69.0896 5.73434 70.8432 4.31212 73.8977 4.31212C75.5462 4.31212 76.7907 4.72424 77.6311 5.54848C78.4876 6.35657 78.9159 7.55252 78.9159 9.13636V15.6333H80.5644V17.5H78.4311C77.9139 17.5 77.5179 17.3626 77.2432 17.0879C76.9684 16.8131 76.8311 16.4091 76.8311 15.8758V15.2455H76.1765C75.8694 16.102 75.4169 16.7323 74.8189 17.1364C74.221 17.5404 73.429 17.7424 72.4432 17.7424ZM70.8917 13.9121C70.8917 14.5263 71.1098 14.9949 71.5462 15.3182C71.9826 15.6253 72.621 15.7788 73.4614 15.7788C75.4492 15.7788 76.4432 14.9061 76.4432 13.1606V11.5121L73.6068 11.7788C72.6533 11.8758 71.9583 12.0778 71.522 12.3848C71.1018 12.6919 70.8917 13.1444 70.8917 13.7424V13.9121ZM84.5557 17.5C84.0223 17.5 83.6102 17.3626 83.3193 17.0879C83.0446 16.797 82.9072 16.3848 82.9072 15.8515V6.42121H80.6526V4.55454H82.9072L83.8042 1.96061H85.4042V4.55454H88.3375V6.42121H85.4042V15.6333H88.3375V17.5H84.5557ZM95.4864 17.7424C93.5793 17.7424 92.1005 17.1687 91.05 16.0212C90.0157 14.8576 89.4985 13.1929 89.4985 11.0273C89.4985 8.86162 90.0157 7.20505 91.05 6.05758C92.1005 4.89394 93.5793 4.31212 95.4864 4.31212C97.3934 4.31212 98.8641 4.89394 99.8985 6.05758C100.933 7.20505 101.45 8.86162 101.45 11.0273C101.45 13.1929 100.933 14.8576 99.8985 16.0212C98.8641 17.1687 97.3934 17.7424 95.4864 17.7424ZM92.1167 11.7545C92.1167 13.1283 92.3914 14.1384 92.9409 14.7848C93.4904 15.4152 94.3389 15.7303 95.4864 15.7303C96.6338 15.7303 97.4742 15.4152 98.0076 14.7848C98.5571 14.1384 98.8318 13.1283 98.8318 11.7545V10.3C98.8318 8.92626 98.5571 7.92424 98.0076 7.29394C97.4742 6.64747 96.6338 6.32424 95.4864 6.32424C94.3389 6.32424 93.4904 6.64747 92.9409 7.29394C92.3914 7.92424 92.1167 8.92626 92.1167 10.3V11.7545ZM104.029 6.42121H102.405V4.55454H106.138V6.9303H106.793C107.1 6.0899 107.504 5.48384 108.005 5.11212C108.506 4.7404 109.16 4.55454 109.968 4.55454H111.617V6.42121H109.265C108.312 6.42121 107.617 6.6798 107.18 7.19697C106.744 7.71414 106.526 8.5303 106.526 9.64545V17.5H104.029V6.42121Z" fill="white"/>
</svg>
