<svg width="14" height="14" viewBox="0 0 14 14" fill="none" xmlns="http://www.w3.org/2000/svg">
<path d="M5.52344 1.42188L5.00391 2.1875H8.96875L8.44922 1.42188C8.42187 1.36719 8.33984 1.3125 8.25781 1.3125H5.71484C5.63281 1.3125 5.55078 1.36719 5.52344 1.42188ZM9.54297 0.683594L10.5547 2.1875H10.9375H12.25H12.4688C12.8242 2.1875 13.125 2.48828 13.125 2.84375C13.125 3.22656 12.8242 3.5 12.4688 3.5H12.25V11.8125C12.25 13.043 11.2656 14 10.0625 14H3.9375C2.70703 14 1.75 13.043 1.75 11.8125V3.5H1.53125C1.14844 3.5 0.875 3.22656 0.875 2.84375C0.875 2.48828 1.14844 2.1875 1.53125 2.1875H1.75H3.0625H3.41797L4.42969 0.683594C4.70312 0.273438 5.19531 0 5.71484 0H8.25781C8.77734 0 9.26953 0.273438 9.54297 0.683594ZM3.0625 3.5V11.8125C3.0625 12.3047 3.44531 12.6875 3.9375 12.6875H10.0625C10.5273 12.6875 10.9375 12.3047 10.9375 11.8125V3.5H3.0625ZM5.25 5.25V10.9375C5.25 11.1836 5.03125 11.375 4.8125 11.375C4.56641 11.375 4.375 11.1836 4.375 10.9375V5.25C4.375 5.03125 4.56641 4.8125 4.8125 4.8125C5.03125 4.8125 5.25 5.03125 5.25 5.25ZM7.4375 5.25V10.9375C7.4375 11.1836 7.21875 11.375 7 11.375C6.75391 11.375 6.5625 11.1836 6.5625 10.9375V5.25C6.5625 5.03125 6.75391 4.8125 7 4.8125C7.21875 4.8125 7.4375 5.03125 7.4375 5.25ZM9.625 5.25V10.9375C9.625 11.1836 9.40625 11.375 9.1875 11.375C8.94141 11.375 8.75 11.1836 8.75 10.9375V5.25C8.75 5.03125 8.94141 4.8125 9.1875 4.8125C9.40625 4.8125 9.625 5.03125 9.625 5.25Z" fill="currentColor"/>
</svg>
