<svg width="13" height="18" viewBox="0 0 13 18" fill="none" xmlns="http://www.w3.org/2000/svg">
<path d="M12.2441 3.24609C12.6426 3.64453 12.875 4.17578 12.875 4.74023V15C12.875 16.1953 11.9121 17.125 10.75 17.125H2.25C1.05469 17.125 0.125 16.1953 0.125 15V2.25C0.125 1.08789 1.05469 0.125 2.25 0.125H8.25977C8.82422 0.125 9.35547 0.357422 9.75391 0.755859L12.2441 3.24609ZM11.2812 15H11.248V5.4375H8.625C8.02734 5.4375 7.5625 4.97266 7.5625 4.375V1.75195H2.25C1.95117 1.75195 1.71875 1.98438 1.71875 2.2832V15C1.71875 15.2988 1.95117 15.5312 2.25 15.5312H10.75C11.0156 15.5312 11.2812 15.2988 11.2812 15ZM3.3125 9.42188C3.3125 8.99023 3.64453 8.625 4.10938 8.625H8.89062C9.32227 8.625 9.6875 8.99023 9.6875 9.42188C9.6875 9.88672 9.32227 10.2188 8.89062 10.2188H4.10938C3.64453 10.2188 3.3125 9.88672 3.3125 9.42188ZM8.89062 11.8125C9.32227 11.8125 9.6875 12.1777 9.6875 12.6094C9.6875 13.0742 9.32227 13.4062 8.89062 13.4062H4.10938C3.64453 13.4062 3.3125 13.0742 3.3125 12.6094C3.3125 12.1777 3.64453 11.8125 4.10938 11.8125H8.89062Z" fill="currentColor"/>
</svg>
