<svg width="13" height="18" viewBox="0 0 13 18" fill="none" xmlns="http://www.w3.org/2000/svg">
<path d="M14 11C14 11.6562 13.5625 12.2188 13 12.4375V14.5H13.25C13.6562 14.5 14 14.8438 14 15.25C14 15.6875 13.6562 16 13.25 16H2.5C1.09375 16 0 14.9062 0 13.5V2.5C0 1.125 1.09375 0 2.5 0H12.5C13.3125 0 14 0.6875 14 1.5V11ZM11.5 14.5V12.5H2.5C1.9375 12.5 1.5 12.9688 1.5 13.5C1.5 14.0625 1.9375 14.5 2.5 14.5H11.5ZM12.5 11V1.5H2.5C1.9375 1.5 1.5 1.96875 1.5 2.5V11.2188C1.78125 11.0938 2.125 11 2.5 11H12.5ZM4.96875 4.5L4.0625 4.125C4 4.09375 4 4.0625 4 4C4 3.96875 4 3.90625 4.0625 3.90625L4.96875 3.5L5.375 2.59375C5.40625 2.53125 5.375 2.5 5.46875 2.5C5.53125 2.5 5.5625 2.53125 5.59375 2.59375L5.96875 3.5L6.875 3.90625C6.9375 3.9375 6.96875 3.96875 6.96875 4C6.96875 4.0625 6.9375 4.09375 6.90625 4.125L5.96875 4.5L5.5625 5.4375C5.5625 5.5 5.46875 5.5 5.46875 5.5C5.4375 5.5 5.40625 5.46875 5.34375 5.4375L4.96875 4.5ZM6.5 7.5C6.5 7.4375 6.53125 7.34375 6.59375 7.3125L8.15625 6.6875L8.8125 5.125C8.84375 5.0625 8.90625 5 9 5C9.0625 5 9.125 5.0625 9.1875 5.125L9.8125 6.6875L11.375 7.34375C11.4375 7.375 11.5 7.4375 11.5 7.5C11.5 7.59375 11.4375 7.65625 11.375 7.6875L9.8125 8.3125L9.15625 9.875C9.125 9.9375 9.0625 10 8.96875 10C8.90625 10 8.84375 9.9375 8.8125 9.875L8.15625 8.34375V8.3125L6.59375 7.6875C6.53125 7.65625 6.5 7.5625 6.5 7.5Z" fill="currentColor"/>
</svg>
